<?xml version="1.0" encoding="utf-8" standalone="no"?>
<!DOCTYPE svg PUBLIC "-//W3C//DTD SVG 1.1//EN"
  "http://www.w3.org/Graphics/SVG/1.1/DTD/svg11.dtd">
<svg xmlns:xlink="http://www.w3.org/1999/xlink" width="849.6pt" height="619.2pt" viewBox="0 0 849.6 619.2" xmlns="http://www.w3.org/2000/svg" version="1.1">
 <metadata>
  <rdf:RDF xmlns:dc="http://purl.org/dc/elements/1.1/" xmlns:cc="http://creativecommons.org/ns#" xmlns:rdf="http://www.w3.org/1999/02/22-rdf-syntax-ns#">
   <cc:Work>
    <dc:type rdf:resource="http://purl.org/dc/dcmitype/StillImage"/>
    <dc:date>2026-07-02</dc:date>
    <dc:format>image/svg+xml</dc:format>
    <dc:creator>
     <cc:Agent>
      <dc:title>Matplotlib v3.11.0, https://matplotlib.org/</dc:title>
     </cc:Agent>
    </dc:creator>
   </cc:Work>
  </rdf:RDF>
 </metadata>
 <defs>
  <style type="text/css">*{stroke-linejoin: round; stroke-linecap: butt}</style>
 </defs>
 <g id="figure_1">
  <g id="patch_1">
   <path d="M 0 619.2
L 849.6 619.2
L 849.6 0
L 0 0
z
" style="fill: #ffffff"/>
  </g>
  <g id="axes_1">
   <g id="patch_2">
    <path d="M 84.96 513.936
L 713.664 513.936
L 713.664 105.264
L 84.96 105.264
z
" style="fill: #ffffff"/>
   </g>
   <g id="matplotlib.axis_1">
    <g id="xtick_1">
     <g id="line2d_1">
      <defs>
       <path id="mbba8bcf165" d="M 0 0
L 0 3.5
" style="stroke: #111111; stroke-width: 0.8"/>
      </defs>
      <g>
       <use xlink:href="#mbba8bcf165" x="108.910629" y="513.936" style="fill: #111111; stroke: #111111; stroke-width: 0.8"/>
      </g>
     </g>
     <g id="text_1">
      <text style="font-size: 10.4px; font-family: 'Inter', 'Helvetica Neue', 'Arial', 'DejaVu Sans', sans-serif; text-anchor: middle; fill: #111111" x="108.910629" y="533.511" transform="rotate(-0 108.910629 533.511)">2010</text>
     </g>
    </g>
    <g id="xtick_2">
     <g id="line2d_2">
      <g>
       <use xlink:href="#mbba8bcf165" x="228.663771" y="513.936" style="fill: #111111; stroke: #111111; stroke-width: 0.8"/>
      </g>
     </g>
     <g id="text_2">
      <text style="font-size: 10.4px; font-family: 'Inter', 'Helvetica Neue', 'Arial', 'DejaVu Sans', sans-serif; text-anchor: middle; fill: #111111" x="228.663771" y="533.511" transform="rotate(-0 228.663771 533.511)">2013</text>
     </g>
    </g>
    <g id="xtick_3">
     <g id="line2d_3">
      <g>
       <use xlink:href="#mbba8bcf165" x="348.416914" y="513.936" style="fill: #111111; stroke: #111111; stroke-width: 0.8"/>
      </g>
     </g>
     <g id="text_3">
      <text style="font-size: 10.4px; font-family: 'Inter', 'Helvetica Neue', 'Arial', 'DejaVu Sans', sans-serif; text-anchor: middle; fill: #111111" x="348.416914" y="533.511" transform="rotate(-0 348.416914 533.511)">2016</text>
     </g>
    </g>
    <g id="xtick_4">
     <g id="line2d_4">
      <g>
       <use xlink:href="#mbba8bcf165" x="468.170057" y="513.936" style="fill: #111111; stroke: #111111; stroke-width: 0.8"/>
      </g>
     </g>
     <g id="text_4">
      <text style="font-size: 10.4px; font-family: 'Inter', 'Helvetica Neue', 'Arial', 'DejaVu Sans', sans-serif; text-anchor: middle; fill: #111111" x="468.170057" y="533.511" transform="rotate(-0 468.170057 533.511)">2019</text>
     </g>
    </g>
    <g id="xtick_5">
     <g id="line2d_5">
      <g>
       <use xlink:href="#mbba8bcf165" x="587.9232" y="513.936" style="fill: #111111; stroke: #111111; stroke-width: 0.8"/>
      </g>
     </g>
     <g id="text_5">
      <text style="font-size: 10.4px; font-family: 'Inter', 'Helvetica Neue', 'Arial', 'DejaVu Sans', sans-serif; text-anchor: middle; fill: #111111" x="587.9232" y="533.511" transform="rotate(-0 587.9232 533.511)">2022</text>
     </g>
    </g>
    <g id="xtick_6">
     <g id="line2d_6">
      <g>
       <use xlink:href="#mbba8bcf165" x="667.758629" y="513.936" style="fill: #111111; stroke: #111111; stroke-width: 0.8"/>
      </g>
     </g>
     <g id="text_6">
      <text style="font-size: 10.4px; font-family: 'Inter', 'Helvetica Neue', 'Arial', 'DejaVu Sans', sans-serif; text-anchor: middle; fill: #111111" x="667.758629" y="533.511" transform="rotate(-0 667.758629 533.511)">2024</text>
     </g>
    </g>
   </g>
   <g id="matplotlib.axis_2">
    <g id="ytick_1">
     <g id="line2d_7">
      <path d="M 84.96 513.936
L 713.664 513.936
" clip-path="url(#p3c943a50df)" style="fill: none; stroke: #e4e4e4; stroke-width: 0.85; stroke-linecap: square"/>
     </g>
     <g id="line2d_8"/>
     <g id="text_7">
      <text style="font-size: 10.4px; font-family: 'Inter', 'Helvetica Neue', 'Arial', 'DejaVu Sans', sans-serif; text-anchor: end; fill: #111111" x="78.96" y="518.9735" transform="rotate(-0 78.96 518.9735)">0</text>
     </g>
    </g>
    <g id="ytick_2">
     <g id="line2d_9">
      <path d="M 84.96 423.12
L 713.664 423.12
" clip-path="url(#p3c943a50df)" style="fill: none; stroke: #e4e4e4; stroke-width: 0.85; stroke-linecap: square"/>
     </g>
     <g id="line2d_10"/>
     <g id="text_8">
      <text style="font-size: 10.4px; font-family: 'Inter', 'Helvetica Neue', 'Arial', 'DejaVu Sans', sans-serif; text-anchor: end; fill: #111111" x="78.96" y="428.1575" transform="rotate(-0 78.96 428.1575)">100</text>
     </g>
    </g>
    <g id="ytick_3">
     <g id="line2d_11">
      <path d="M 84.96 332.304
L 713.664 332.304
" clip-path="url(#p3c943a50df)" style="fill: none; stroke: #e4e4e4; stroke-width: 0.85; stroke-linecap: square"/>
     </g>
     <g id="line2d_12"/>
     <g id="text_9">
      <text style="font-size: 10.4px; font-family: 'Inter', 'Helvetica Neue', 'Arial', 'DejaVu Sans', sans-serif; text-anchor: end; fill: #111111" x="78.96" y="337.3415" transform="rotate(-0 78.96 337.3415)">200</text>
     </g>
    </g>
    <g id="ytick_4">
     <g id="line2d_13">
      <path d="M 84.96 241.488
L 713.664 241.488
" clip-path="url(#p3c943a50df)" style="fill: none; stroke: #e4e4e4; stroke-width: 0.85; stroke-linecap: square"/>
     </g>
     <g id="line2d_14"/>
     <g id="text_10">
      <text style="font-size: 10.4px; font-family: 'Inter', 'Helvetica Neue', 'Arial', 'DejaVu Sans', sans-serif; text-anchor: end; fill: #111111" x="78.96" y="246.5255" transform="rotate(-0 78.96 246.5255)">300</text>
     </g>
    </g>
    <g id="ytick_5">
     <g id="line2d_15">
      <path d="M 84.96 150.672
L 713.664 150.672
" clip-path="url(#p3c943a50df)" style="fill: none; stroke: #e4e4e4; stroke-width: 0.85; stroke-linecap: square"/>
     </g>
     <g id="line2d_16"/>
     <g id="text_11">
      <text style="font-size: 10.4px; font-family: 'Inter', 'Helvetica Neue', 'Arial', 'DejaVu Sans', sans-serif; text-anchor: end; fill: #111111" x="78.96" y="155.7095" transform="rotate(-0 78.96 155.7095)">400</text>
     </g>
    </g>
    <g id="text_12">
     <text style="font-size: 11.2px; font-family: 'Inter', 'Helvetica Neue', 'Arial', 'DejaVu Sans', sans-serif; text-anchor: middle; fill: #111111" x="46.57833" y="309.6" transform="rotate(-90 46.57833 309.6)">Annual cooling degree-days</text>
    </g>
   </g>
   <g id="line2d_17">
    <path d="M 670.952046 508.594908
L 679.733943 508.594908
" clip-path="url(#p3c943a50df)" style="fill: none; stroke: #d8d8d8; stroke-width: 0.8; stroke-linecap: square"/>
   </g>
   <g id="line2d_18">
    <path d="M 670.952046 498.716507
L 679.733943 490.204668
" clip-path="url(#p3c943a50df)" style="fill: none; stroke: #d8d8d8; stroke-width: 0.8; stroke-linecap: square"/>
   </g>
   <g id="line2d_19">
    <path d="M 670.952046 319.966596
L 679.733943 319.966596
" clip-path="url(#p3c943a50df)" style="fill: none; stroke: #d8d8d8; stroke-width: 0.8; stroke-linecap: square"/>
   </g>
   <g id="line2d_20">
    <path d="M 670.952046 225.933285
L 679.733943 225.933285
" clip-path="url(#p3c943a50df)" style="fill: none; stroke: #d8d8d8; stroke-width: 0.8; stroke-linecap: square"/>
   </g>
   <g id="patch_3">
    <path d="M 84.96 513.936
L 713.664 513.936
" style="fill: none; stroke: #d8d2c8; stroke-width: 1.15; stroke-linejoin: miter; stroke-linecap: square"/>
   </g>
   <g id="line2d_21">
    <path d="M 108.910629 485.644331
L 148.828343 511.480937
L 188.746057 505.046386
L 228.663771 509.636214
L 268.581486 500.796741
L 308.4992 506.181921
L 348.416914 510.401287
L 388.334629 511.510441
L 428.252343 496.224604
L 468.170057 507.706654
L 508.087771 513.190405
L 548.005486 489.815564
L 587.9232 503.182079
L 627.840914 505.878284
L 667.758629 508.594908
" clip-path="url(#p3c943a50df)" style="fill: none; stroke: #b5b5b5; stroke-width: 2.85; stroke-linecap: square"/>
   </g>
   <g id="line2d_22">
    <path d="M 108.910629 481.04751
L 148.828343 504.867759
L 188.746057 494.728742
L 228.663771 485.523029
L 268.581486 502.164627
L 308.4992 456.19146
L 348.416914 491.256652
L 388.334629 495.538668
L 428.252343 465.158157
L 468.170057 464.087836
L 508.087771 469.953474
L 548.005486 506.321169
L 587.9232 485.175162
L 627.840914 497.844641
L 667.758629 498.716507
" clip-path="url(#p3c943a50df)" style="fill: none; stroke: #858585; stroke-width: 2.85; stroke-linecap: square"/>
   </g>
   <g id="line2d_23">
    <path d="M 108.910629 438.646293
L 148.828343 454.857312
L 188.746057 377.824457
L 228.663771 433.658288
L 268.581486 477.689828
L 308.4992 375.191783
L 348.416914 470.162219
L 388.334629 417.692715
L 428.252343 441.083092
L 468.170057 419.045916
L 508.087771 469.033614
L 548.005486 415.728906
L 587.9232 406.078452
L 627.840914 431.545557
L 667.758629 319.966596
" clip-path="url(#p3c943a50df)" style="fill: none; stroke: #4d4d4d; stroke-width: 2.85; stroke-linecap: square"/>
   </g>
   <g id="line2d_24">
    <path d="M 108.910629 338.324903
L 148.828343 320.533276
L 188.746057 251.506716
L 228.663771 331.987915
L 268.581486 394.583468
L 308.4992 234.407283
L 348.416914 313.734932
L 388.334629 239.272438
L 428.252343 289.544745
L 468.170057 273.537935
L 508.087771 289.447593
L 548.005486 280.476581
L 587.9232 169.760463
L 627.840914 241.557242
L 667.758629 225.933285
" clip-path="url(#p3c943a50df)" style="fill: none; stroke: #111111; stroke-width: 2.85; stroke-linecap: square"/>
   </g>
   <g id="text_13">
    <text style="font-weight: 700; font-size: 10.4px; font-family: 'Inter', 'Helvetica Neue', 'Arial', 'DejaVu Sans', sans-serif; text-anchor: start; fill: #b5b5b5" x="682.129006" y="512.376727" transform="rotate(-0 682.129006 512.376727)">North</text>
   </g>
   <g id="text_14">
    <text style="font-weight: 700; font-size: 10.4px; font-family: 'Inter', 'Helvetica Neue', 'Arial', 'DejaVu Sans', sans-serif; text-anchor: start; fill: #858585" x="682.129006" y="493.986487" transform="rotate(-0 682.129006 493.986487)">West</text>
   </g>
   <g id="text_15">
    <text style="font-weight: 700; font-size: 10.4px; font-family: 'Inter', 'Helvetica Neue', 'Arial', 'DejaVu Sans', sans-serif; text-anchor: start; fill: #4d4d4d" x="682.129006" y="323.748414" transform="rotate(-0 682.129006 323.748414)">East</text>
   </g>
   <g id="text_16">
    <text style="font-weight: 700; font-size: 10.4px; font-family: 'Inter', 'Helvetica Neue', 'Arial', 'DejaVu Sans', sans-serif; text-anchor: start; fill: #111111" x="682.129006" y="229.715103" transform="rotate(-0 682.129006 229.715103)">South</text>
   </g>
   <g id="PathCollection_1">
    <defs>
     <path id="mb0213b661f" d="M 0 3.24037
C 0.859356 3.24037 1.683631 2.898944 2.291288 2.291288
C 2.898944 1.683631 3.24037 0.859356 3.24037 0
C 3.24037 -0.859356 2.898944 -1.683631 2.291288 -2.291288
C 1.683631 -2.898944 0.859356 -3.24037 0 -3.24037
C -0.859356 -3.24037 -1.683631 -2.898944 -2.291288 -2.291288
C -2.898944 -1.683631 -3.24037 -0.859356 -3.24037 0
C -3.24037 0.859356 -2.898944 1.683631 -2.291288 2.291288
C -1.683631 2.898944 -0.859356 3.24037 0 3.24037
z
" style="stroke: #ffffff; stroke-width: 1.1"/>
    </defs>
    <g clip-path="url(#p3c943a50df)">
     <use xlink:href="#mb0213b661f" x="667.758629" y="508.594908" style="fill: #b5b5b5; stroke: #ffffff; stroke-width: 1.1"/>
    </g>
   </g>
   <g id="PathCollection_2">
    <defs>
     <path id="m3602433d1e" d="M 0 3.24037
C 0.859356 3.24037 1.683631 2.898944 2.291288 2.291288
C 2.898944 1.683631 3.24037 0.859356 3.24037 0
C 3.24037 -0.859356 2.898944 -1.683631 2.291288 -2.291288
C 1.683631 -2.898944 0.859356 -3.24037 0 -3.24037
C -0.859356 -3.24037 -1.683631 -2.898944 -2.291288 -2.291288
C -2.898944 -1.683631 -3.24037 -0.859356 -3.24037 0
C -3.24037 0.859356 -2.898944 1.683631 -2.291288 2.291288
C -1.683631 2.898944 -0.859356 3.24037 0 3.24037
z
" style="stroke: #ffffff; stroke-width: 1.1"/>
    </defs>
    <g clip-path="url(#p3c943a50df)">
     <use xlink:href="#m3602433d1e" x="667.758629" y="498.716507" style="fill: #858585; stroke: #ffffff; stroke-width: 1.1"/>
    </g>
   </g>
   <g id="PathCollection_3">
    <defs>
     <path id="mcf23ad8de6" d="M 0 3.24037
C 0.859356 3.24037 1.683631 2.898944 2.291288 2.291288
C 2.898944 1.683631 3.24037 0.859356 3.24037 0
C 3.24037 -0.859356 2.898944 -1.683631 2.291288 -2.291288
C 1.683631 -2.898944 0.859356 -3.24037 0 -3.24037
C -0.859356 -3.24037 -1.683631 -2.898944 -2.291288 -2.291288
C -2.898944 -1.683631 -3.24037 -0.859356 -3.24037 0
C -3.24037 0.859356 -2.898944 1.683631 -2.291288 2.291288
C -1.683631 2.898944 -0.859356 3.24037 0 3.24037
z
" style="stroke: #ffffff; stroke-width: 1.1"/>
    </defs>
    <g clip-path="url(#p3c943a50df)">
     <use xlink:href="#mcf23ad8de6" x="667.758629" y="319.966596" style="fill: #4d4d4d; stroke: #ffffff; stroke-width: 1.1"/>
    </g>
   </g>
   <g id="PathCollection_4">
    <defs>
     <path id="me3abb27690" d="M 0 3.24037
C 0.859356 3.24037 1.683631 2.898944 2.291288 2.291288
C 2.898944 1.683631 3.24037 0.859356 3.24037 0
C 3.24037 -0.859356 2.898944 -1.683631 2.291288 -2.291288
C 1.683631 -2.898944 0.859356 -3.24037 0 -3.24037
C -0.859356 -3.24037 -1.683631 -2.898944 -2.291288 -2.291288
C -2.898944 -1.683631 -3.24037 -0.859356 -3.24037 0
C -3.24037 0.859356 -2.898944 1.683631 -2.291288 2.291288
C -1.683631 2.898944 -0.859356 3.24037 0 3.24037
z
" style="stroke: #ffffff; stroke-width: 1.1"/>
    </defs>
    <g clip-path="url(#p3c943a50df)">
     <use xlink:href="#me3abb27690" x="667.758629" y="225.933285" style="fill: #111111; stroke: #ffffff; stroke-width: 1.1"/>
    </g>
   </g>
  </g>
  <g id="text_17">
   <text style="font-weight: 700; font-size: 24px; font-family: 'Inter', 'Helvetica Neue', 'Arial', 'DejaVu Sans', sans-serif; text-anchor: start; fill: #111111" x="46.728" y="60.402" transform="rotate(-0 46.728 60.402)">Cooling pressure is rising</text>
  </g>
  <g id="text_18">
   <text style="font-size: 13px; font-family: 'Inter', 'Helvetica Neue', 'Arial', 'DejaVu Sans', sans-serif; text-anchor: start; fill: #666666" x="46.728" y="77.60975" transform="rotate(-0 46.728 77.60975)">Regional medians · annual cooling degree-days · 2010–2024</text>
  </g>
  <g id="text_19">
   <text style="font-size: 9.3px; font-family: 'Inter', 'Helvetica Neue', 'Arial', 'DejaVu Sans', sans-serif; text-anchor: start; fill: #666666" x="46.728" y="582.898261" transform="rotate(-0 46.728 582.898261)">Cooling degree-days combine hot-day frequency and intensity; 21 matched countries · Source: ODYSSEE/Enerdata export, 2026-07-02.</text>
  </g>
 </g>
 <defs>
  <clipPath id="p3c943a50df">
   <rect x="84.96" y="105.264" width="628.704" height="408.672"/>
  </clipPath>
 </defs>
</svg>
