<?xml version="1.0" encoding="utf-8" standalone="no"?>
<!DOCTYPE svg PUBLIC "-//W3C//DTD SVG 1.1//EN"
  "http://www.w3.org/Graphics/SVG/1.1/DTD/svg11.dtd">
<svg xmlns:xlink="http://www.w3.org/1999/xlink" width="860.555223pt" height="486.144pt" viewBox="0 0 860.555223 486.144" xmlns="http://www.w3.org/2000/svg" version="1.1">
 <metadata>
  <rdf:RDF xmlns:dc="http://purl.org/dc/elements/1.1/" xmlns:cc="http://creativecommons.org/ns#" xmlns:rdf="http://www.w3.org/1999/02/22-rdf-syntax-ns#">
   <cc:Work>
    <dc:type rdf:resource="http://purl.org/dc/dcmitype/StillImage"/>
    <dc:date>2026-07-02</dc:date>
    <dc:format>image/svg+xml</dc:format>
    <dc:creator>
     <cc:Agent>
      <dc:title>Matplotlib v3.11.0, https://matplotlib.org/</dc:title>
     </cc:Agent>
    </dc:creator>
   </cc:Work>
  </rdf:RDF>
 </metadata>
 <defs>
  <style type="text/css">*{stroke-linejoin: round; stroke-linecap: butt}</style>
 </defs>
 <g id="figure_1">
  <g id="patch_1">
   <path d="M 0 486.144
L 860.555223 486.144
L 860.555223 0
L 0 0
z
" style="fill: #ffffff"/>
  </g>
  <g id="axes_1">
   <g id="patch_2">
    <path d="M 56.983942 408.96
L 694.183942 408.96
L 694.183942 77.184
L 56.983942 77.184
z
" style="fill: #ffffff"/>
   </g>
   <g id="matplotlib.axis_1">
    <g id="xtick_1">
     <g id="line2d_1">
      <defs>
       <path id="mbba8bcf165" d="M 0 0
L 0 3.5
" style="stroke: #111111; stroke-width: 0.8"/>
      </defs>
      <g>
       <use xlink:href="#mbba8bcf165" x="80.154851" y="408.96" style="fill: #111111; stroke: #111111; stroke-width: 0.8"/>
      </g>
     </g>
     <g id="text_1">
      <text style="font-size: 10.5px; font-family: 'Inter', 'Helvetica Neue', 'Arial', 'DejaVu Sans', sans-serif; text-anchor: middle; fill: #111111" x="80.154851" y="428.631875" transform="rotate(-0 80.154851 428.631875)">2010</text>
     </g>
    </g>
    <g id="xtick_2">
     <g id="line2d_2">
      <g>
       <use xlink:href="#mbba8bcf165" x="196.009396" y="408.96" style="fill: #111111; stroke: #111111; stroke-width: 0.8"/>
      </g>
     </g>
     <g id="text_2">
      <text style="font-size: 10.5px; font-family: 'Inter', 'Helvetica Neue', 'Arial', 'DejaVu Sans', sans-serif; text-anchor: middle; fill: #111111" x="196.009396" y="428.631875" transform="rotate(-0 196.009396 428.631875)">2013</text>
     </g>
    </g>
    <g id="xtick_3">
     <g id="line2d_3">
      <g>
       <use xlink:href="#mbba8bcf165" x="311.863942" y="408.96" style="fill: #111111; stroke: #111111; stroke-width: 0.8"/>
      </g>
     </g>
     <g id="text_3">
      <text style="font-size: 10.5px; font-family: 'Inter', 'Helvetica Neue', 'Arial', 'DejaVu Sans', sans-serif; text-anchor: middle; fill: #111111" x="311.863942" y="428.631875" transform="rotate(-0 311.863942 428.631875)">2016</text>
     </g>
    </g>
    <g id="xtick_4">
     <g id="line2d_4">
      <g>
       <use xlink:href="#mbba8bcf165" x="427.718487" y="408.96" style="fill: #111111; stroke: #111111; stroke-width: 0.8"/>
      </g>
     </g>
     <g id="text_4">
      <text style="font-size: 10.5px; font-family: 'Inter', 'Helvetica Neue', 'Arial', 'DejaVu Sans', sans-serif; text-anchor: middle; fill: #111111" x="427.718487" y="428.631875" transform="rotate(-0 427.718487 428.631875)">2019</text>
     </g>
    </g>
    <g id="xtick_5">
     <g id="line2d_5">
      <g>
       <use xlink:href="#mbba8bcf165" x="543.573033" y="408.96" style="fill: #111111; stroke: #111111; stroke-width: 0.8"/>
      </g>
     </g>
     <g id="text_5">
      <text style="font-size: 10.5px; font-family: 'Inter', 'Helvetica Neue', 'Arial', 'DejaVu Sans', sans-serif; text-anchor: middle; fill: #111111" x="543.573033" y="428.631875" transform="rotate(-0 543.573033 428.631875)">2022</text>
     </g>
    </g>
    <g id="xtick_6">
     <g id="line2d_6">
      <g>
       <use xlink:href="#mbba8bcf165" x="620.809396" y="408.96" style="fill: #111111; stroke: #111111; stroke-width: 0.8"/>
      </g>
     </g>
     <g id="text_6">
      <text style="font-size: 10.5px; font-family: 'Inter', 'Helvetica Neue', 'Arial', 'DejaVu Sans', sans-serif; text-anchor: middle; fill: #111111" x="620.809396" y="428.631875" transform="rotate(-0 620.809396 428.631875)">2024</text>
     </g>
    </g>
   </g>
   <g id="matplotlib.axis_2">
    <g id="ytick_1">
     <g id="line2d_7">
      <path d="M 56.983942 408.96
L 694.183942 408.96
" clip-path="url(#p5b5c0cf4af)" style="fill: none; stroke: #e4e4e4; stroke-width: 0.85; stroke-linecap: square"/>
     </g>
     <g id="line2d_8"/>
     <g id="text_7">
      <text style="font-size: 10.5px; font-family: 'Inter', 'Helvetica Neue', 'Arial', 'DejaVu Sans', sans-serif; text-anchor: end; fill: #111111" x="50.983942" y="414.045937" transform="rotate(-0 50.983942 414.045937)">0</text>
     </g>
    </g>
    <g id="ytick_2">
     <g id="line2d_9">
      <path d="M 56.983942 335.232
L 694.183942 335.232
" clip-path="url(#p5b5c0cf4af)" style="fill: none; stroke: #e4e4e4; stroke-width: 0.85; stroke-linecap: square"/>
     </g>
     <g id="line2d_10"/>
     <g id="text_8">
      <text style="font-size: 10.5px; font-family: 'Inter', 'Helvetica Neue', 'Arial', 'DejaVu Sans', sans-serif; text-anchor: end; fill: #111111" x="50.983942" y="340.317937" transform="rotate(-0 50.983942 340.317937)">100</text>
     </g>
    </g>
    <g id="ytick_3">
     <g id="line2d_11">
      <path d="M 56.983942 261.504
L 694.183942 261.504
" clip-path="url(#p5b5c0cf4af)" style="fill: none; stroke: #e4e4e4; stroke-width: 0.85; stroke-linecap: square"/>
     </g>
     <g id="line2d_12"/>
     <g id="text_9">
      <text style="font-size: 10.5px; font-family: 'Inter', 'Helvetica Neue', 'Arial', 'DejaVu Sans', sans-serif; text-anchor: end; fill: #111111" x="50.983942" y="266.589937" transform="rotate(-0 50.983942 266.589937)">200</text>
     </g>
    </g>
    <g id="ytick_4">
     <g id="line2d_13">
      <path d="M 56.983942 187.776
L 694.183942 187.776
" clip-path="url(#p5b5c0cf4af)" style="fill: none; stroke: #e4e4e4; stroke-width: 0.85; stroke-linecap: square"/>
     </g>
     <g id="line2d_14"/>
     <g id="text_10">
      <text style="font-size: 10.5px; font-family: 'Inter', 'Helvetica Neue', 'Arial', 'DejaVu Sans', sans-serif; text-anchor: end; fill: #111111" x="50.983942" y="192.861937" transform="rotate(-0 50.983942 192.861937)">300</text>
     </g>
    </g>
    <g id="ytick_5">
     <g id="line2d_15">
      <path d="M 56.983942 114.048
L 694.183942 114.048
" clip-path="url(#p5b5c0cf4af)" style="fill: none; stroke: #e4e4e4; stroke-width: 0.85; stroke-linecap: square"/>
     </g>
     <g id="line2d_16"/>
     <g id="text_11">
      <text style="font-size: 10.5px; font-family: 'Inter', 'Helvetica Neue', 'Arial', 'DejaVu Sans', sans-serif; text-anchor: end; fill: #111111" x="50.983942" y="119.133937" transform="rotate(-0 50.983942 119.133937)">400</text>
     </g>
    </g>
    <g id="text_12">
     <text style="font-size: 11.5px; font-family: 'Inter', 'Helvetica Neue', 'Arial', 'DejaVu Sans', sans-serif; text-anchor: middle; fill: #111111" x="18.340625" y="243.072" transform="rotate(-90 18.340625 243.072)">Annual cooling degree-days</text>
    </g>
   </g>
   <g id="line2d_17">
    <path d="M 624.671214 404.623892
L 637.029033 404.623892
" clip-path="url(#p5b5c0cf4af)" style="fill: none; stroke: #d8d8d8; stroke-width: 0.85; stroke-linecap: square"/>
   </g>
   <g id="line2d_18">
    <path d="M 624.671214 396.604217
L 637.029033 389.693972
" clip-path="url(#p5b5c0cf4af)" style="fill: none; stroke: #d8d8d8; stroke-width: 0.85; stroke-linecap: square"/>
   </g>
   <g id="line2d_19">
    <path d="M 624.671214 251.48801
L 637.029033 251.48801
" clip-path="url(#p5b5c0cf4af)" style="fill: none; stroke: #d8d8d8; stroke-width: 0.85; stroke-linecap: square"/>
   </g>
   <g id="line2d_20">
    <path d="M 624.671214 175.148071
L 637.029033 175.148071
" clip-path="url(#p5b5c0cf4af)" style="fill: none; stroke: #d8d8d8; stroke-width: 0.85; stroke-linecap: square"/>
   </g>
   <g id="patch_3">
    <path d="M 56.983942 408.96
L 694.183942 408.96
" style="fill: none; stroke: #d8d2c8; stroke-width: 1.2; stroke-linejoin: miter; stroke-linecap: square"/>
   </g>
   <g id="line2d_21">
    <path d="M 80.154851 385.99171
L 118.773033 406.966883
L 157.391214 401.743062
L 196.009396 405.469265
L 234.627578 398.293033
L 273.24576 402.664934
L 311.863942 406.090381
L 350.482124 406.990836
L 389.100305 394.581193
L 427.718487 403.902772
L 466.336669 408.354697
L 504.954851 389.378081
L 543.573033 400.229544
L 582.191214 402.418429
L 620.809396 404.623892
" clip-path="url(#p5b5c0cf4af)" style="fill: none; stroke: #b5b5b5; stroke-width: 3; stroke-linecap: square"/>
   </g>
   <g id="line2d_22">
    <path d="M 80.154851 382.259831
L 118.773033 401.598045
L 157.391214 393.366793
L 196.009396 385.893233
L 234.627578 399.403537
L 273.24576 362.080712
L 311.863942 390.548013
L 350.482124 394.024322
L 389.100305 369.360229
L 427.718487 368.491301
L 466.336669 373.253256
L 504.954851 402.777981
L 543.573033 385.610821
L 582.191214 395.896402
L 620.809396 396.604217
" clip-path="url(#p5b5c0cf4af)" style="fill: none; stroke: #858585; stroke-width: 3; stroke-linecap: square"/>
   </g>
   <g id="line2d_23">
    <path d="M 80.154851 347.836855
L 118.773033 360.997598
L 157.391214 298.459297
L 196.009396 343.787396
L 234.627578 379.533932
L 273.24576 296.321989
L 311.863942 373.422724
L 350.482124 330.825916
L 389.100305 349.815144
L 427.718487 331.924498
L 466.336669 372.506478
L 504.954851 329.231619
L 543.573033 321.397001
L 582.191214 342.072199
L 620.809396 251.48801
" clip-path="url(#p5b5c0cf4af)" style="fill: none; stroke: #4d4d4d; stroke-width: 3; stroke-linecap: square"/>
   </g>
   <g id="line2d_24">
    <path d="M 80.154851 266.392006
L 118.773033 251.948064
L 157.391214 195.909587
L 196.009396 261.24739
L 234.627578 312.064921
L 273.24576 182.027595
L 311.863942 246.428901
L 350.482124 185.977319
L 389.100305 226.790355
L 427.718487 213.795397
L 466.336669 226.711483
L 504.954851 219.428463
L 543.573033 129.544765
L 582.191214 187.832214
L 620.809396 175.148071
" clip-path="url(#p5b5c0cf4af)" style="fill: none; stroke: #111111; stroke-width: 3; stroke-linecap: square"/>
   </g>
   <g id="text_13">
    <text style="font-weight: 700; font-size: 10.8px; font-family: 'Inter', 'Helvetica Neue', 'Arial', 'DejaVu Sans', sans-serif; text-anchor: start; fill: #b5b5b5" x="640.118487" y="408.551165" transform="rotate(-0 640.118487 408.551165)">North</text>
   </g>
   <g id="text_14">
    <text style="font-weight: 700; font-size: 10.8px; font-family: 'Inter', 'Helvetica Neue', 'Arial', 'DejaVu Sans', sans-serif; text-anchor: start; fill: #858585" x="640.118487" y="393.621245" transform="rotate(-0 640.118487 393.621245)">West</text>
   </g>
   <g id="text_15">
    <text style="font-weight: 700; font-size: 10.8px; font-family: 'Inter', 'Helvetica Neue', 'Arial', 'DejaVu Sans', sans-serif; text-anchor: start; fill: #4d4d4d" x="640.118487" y="255.415283" transform="rotate(-0 640.118487 255.415283)">East</text>
   </g>
   <g id="text_16">
    <text style="font-weight: 700; font-size: 10.8px; font-family: 'Inter', 'Helvetica Neue', 'Arial', 'DejaVu Sans', sans-serif; text-anchor: start; fill: #111111" x="640.118487" y="179.075343" transform="rotate(-0 640.118487 179.075343)">South</text>
   </g>
   <g id="PathCollection_1">
    <defs>
     <path id="mb0213b661f" d="M 0 3.24037
C 0.859356 3.24037 1.683631 2.898944 2.291288 2.291288
C 2.898944 1.683631 3.24037 0.859356 3.24037 0
C 3.24037 -0.859356 2.898944 -1.683631 2.291288 -2.291288
C 1.683631 -2.898944 0.859356 -3.24037 0 -3.24037
C -0.859356 -3.24037 -1.683631 -2.898944 -2.291288 -2.291288
C -2.898944 -1.683631 -3.24037 -0.859356 -3.24037 0
C -3.24037 0.859356 -2.898944 1.683631 -2.291288 2.291288
C -1.683631 2.898944 -0.859356 3.24037 0 3.24037
z
" style="stroke: #ffffff; stroke-width: 1.1"/>
    </defs>
    <g clip-path="url(#p5b5c0cf4af)">
     <use xlink:href="#mb0213b661f" x="620.809396" y="404.623892" style="fill: #b5b5b5; stroke: #ffffff; stroke-width: 1.1"/>
    </g>
   </g>
   <g id="PathCollection_2">
    <defs>
     <path id="m3602433d1e" d="M 0 3.24037
C 0.859356 3.24037 1.683631 2.898944 2.291288 2.291288
C 2.898944 1.683631 3.24037 0.859356 3.24037 0
C 3.24037 -0.859356 2.898944 -1.683631 2.291288 -2.291288
C 1.683631 -2.898944 0.859356 -3.24037 0 -3.24037
C -0.859356 -3.24037 -1.683631 -2.898944 -2.291288 -2.291288
C -2.898944 -1.683631 -3.24037 -0.859356 -3.24037 0
C -3.24037 0.859356 -2.898944 1.683631 -2.291288 2.291288
C -1.683631 2.898944 -0.859356 3.24037 0 3.24037
z
" style="stroke: #ffffff; stroke-width: 1.1"/>
    </defs>
    <g clip-path="url(#p5b5c0cf4af)">
     <use xlink:href="#m3602433d1e" x="620.809396" y="396.604217" style="fill: #858585; stroke: #ffffff; stroke-width: 1.1"/>
    </g>
   </g>
   <g id="PathCollection_3">
    <defs>
     <path id="mcf23ad8de6" d="M 0 3.24037
C 0.859356 3.24037 1.683631 2.898944 2.291288 2.291288
C 2.898944 1.683631 3.24037 0.859356 3.24037 0
C 3.24037 -0.859356 2.898944 -1.683631 2.291288 -2.291288
C 1.683631 -2.898944 0.859356 -3.24037 0 -3.24037
C -0.859356 -3.24037 -1.683631 -2.898944 -2.291288 -2.291288
C -2.898944 -1.683631 -3.24037 -0.859356 -3.24037 0
C -3.24037 0.859356 -2.898944 1.683631 -2.291288 2.291288
C -1.683631 2.898944 -0.859356 3.24037 0 3.24037
z
" style="stroke: #ffffff; stroke-width: 1.1"/>
    </defs>
    <g clip-path="url(#p5b5c0cf4af)">
     <use xlink:href="#mcf23ad8de6" x="620.809396" y="251.48801" style="fill: #4d4d4d; stroke: #ffffff; stroke-width: 1.1"/>
    </g>
   </g>
   <g id="PathCollection_4">
    <defs>
     <path id="me3abb27690" d="M 0 3.24037
C 0.859356 3.24037 1.683631 2.898944 2.291288 2.291288
C 2.898944 1.683631 3.24037 0.859356 3.24037 0
C 3.24037 -0.859356 2.898944 -1.683631 2.291288 -2.291288
C 1.683631 -2.898944 0.859356 -3.24037 0 -3.24037
C -0.859356 -3.24037 -1.683631 -2.898944 -2.291288 -2.291288
C -2.898944 -1.683631 -3.24037 -0.859356 -3.24037 0
C -3.24037 0.859356 -2.898944 1.683631 -2.291288 2.291288
C -1.683631 2.898944 -0.859356 3.24037 0 3.24037
z
" style="stroke: #ffffff; stroke-width: 1.1"/>
    </defs>
    <g clip-path="url(#p5b5c0cf4af)">
     <use xlink:href="#me3abb27690" x="620.809396" y="175.148071" style="fill: #111111; stroke: #ffffff; stroke-width: 1.1"/>
    </g>
   </g>
  </g>
  <g id="text_17">
   <text style="font-weight: 700; font-size: 26px; font-family: 'Inter', 'Helvetica Neue', 'Arial', 'DejaVu Sans', sans-serif; text-anchor: start; fill: #111111" x="14.503942" y="32.3875" transform="rotate(-0 14.503942 32.3875)">Cooling-weather pressure is rising</text>
  </g>
  <g id="text_18">
   <text style="font-size: 13.5px; font-family: 'Inter', 'Helvetica Neue', 'Arial', 'DejaVu Sans', sans-serif; text-anchor: start; fill: #666666" x="14.503942" y="47.753325" transform="rotate(-0 14.503942 47.753325)">Regional medians · annual cooling degree-days · 2010–2024</text>
  </g>
  <g id="text_19">
   <text style="font-size: 9.3px; font-family: 'Inter', 'Helvetica Neue', 'Arial', 'DejaVu Sans', sans-serif; text-anchor: start; fill: #666666" x="14.503942" y="476.698261" transform="rotate(-0 14.503942 476.698261)">Cooling degree-days combine how many hot days there are and how far temperatures sit above the cooling threshold; 21 matched countries · Source: ODYSSEE/Enerdata export, 2026-07-02.</text>
  </g>
 </g>
 <defs>
  <clipPath id="p5b5c0cf4af">
   <rect x="56.983942" y="77.184" width="637.2" height="331.776"/>
  </clipPath>
 </defs>
</svg>
